<svg width="22" height="29" viewBox="0 0 22 29" fill="none" xmlns="http://www.w3.org/2000/svg">
<path d="M1 12.3333H6.66667M1 18H5.25M1 3.83333C1 3.08189 1.29851 2.36122 1.82986 1.82986C2.36122 1.29851 3.08189 1 3.83333 1H6.66667C7.41811 1 8.13878 1.29851 8.67014 1.82986C9.20149 2.36122 9.5 3.08189 9.5 3.83333C9.5 4.58478 9.20149 5.30545 8.67014 5.8368C8.13878 6.36816 7.41811 6.66667 6.66667 6.66667H3.83333C3.08189 6.66667 2.36122 6.36816 1.82986 5.8368C1.29851 5.30545 1 4.58478 1 3.83333ZM9.5 22.25C9.5 23.7529 10.097 25.1942 11.1597 26.2569C12.2224 27.3196 13.6638 27.9167 15.1667 27.9167C16.6696 27.9167 18.1109 27.3196 19.1736 26.2569C20.2363 25.1942 20.8333 23.7529 20.8333 22.25C20.8333 20.7471 20.2363 19.3058 19.1736 18.2431C18.1109 17.1804 16.6696 16.5833 15.1667 16.5833C13.6638 16.5833 12.2224 17.1804 11.1597 18.2431C10.097 19.3058 9.5 20.7471 9.5 22.25Z" stroke="white" stroke-width="2" stroke-linecap="round" stroke-linejoin="round"/>
</svg>
