<svg width="26" height="29" viewBox="0 0 26 29" fill="none" xmlns="http://www.w3.org/2000/svg">
<path d="M22.6667 25.5H2.83333V9.91667H22.6667M18.4167 0V2.83333H7.08333V0H4.25V2.83333H2.83333C1.26083 2.83333 0 4.09417 0 5.66667V25.5C0 26.2514 0.298511 26.9721 0.829864 27.5035C1.36122 28.0348 2.08189 28.3333 2.83333 28.3333H22.6667C23.4181 28.3333 24.1388 28.0348 24.6701 27.5035C25.2015 26.9721 25.5 26.2514 25.5 25.5V5.66667C25.5 4.91522 25.2015 4.19455 24.6701 3.6632C24.1388 3.13184 23.4181 2.83333 22.6667 2.83333H21.25V0M19.8333 15.5833H12.75V22.6667H19.8333V15.5833Z" fill="white"/>
</svg>
